<svg xmlns="http://www.w3.org/2000/svg" viewBox="0 0 1276.56 643.07"><defs><style>.cls-1{fill:#002e6d;fill-rule:evenodd;}</style></defs><g id="Layer_2" data-name="Layer 2"><g id="Layer_1-2" data-name="Layer 1"><path class="cls-1" d="M281.08,321.53h0c55.52-16.82,60.92-95,60.92-149.61,0-125-76.49-160.4-174.23-160.4H0v620H182.39c105.21,0,178.67-34.36,174.15-179.4-2.15-68.81-20.9-98.26-75.46-130.62M143.33,113.46c51.37,0,67.91,10.73,67,73.33-.94,75.36-9.36,79.61-67,79.61Zm0,414.81V375.32c51.5-4.13,76.11,10.73,75.15,73.34-.94,75.36-16.81,85.31-75.15,79.61"/><path class="cls-1" d="M1276.56,247.14V179.36C1276.56,53,1215.07-1.8,1091.82.05,973.34,1.73,918.31,60.63,918.31,197.58V445.49c0,137,55,195.86,173.51,197.54,123.25,1.84,184.74-52.93,184.74-179.31V395.93H1138.93v103a37.8,37.8,0,1,1-75.6,0V144.15a37.8,37.8,0,0,1,75.6,0v103Z"/><polygon class="cls-1" points="665.34 11.52 631.55 213 597.77 11.52 385.48 11.52 385.48 631.55 526.36 631.55 526.36 204.18 585.69 631.55 631.55 631.55 677.42 631.55 736.75 204.18 736.75 631.55 877.63 631.55 877.63 11.52 665.34 11.52"/></g></g></svg>